<svg xmlns="http://www.w3.org/2000/svg" xmlns:xlink="http://www.w3.org/1999/xlink" version="1.1" x="0px" y="0px" viewBox="0 -0.001 279.6439920159682 65.15839193013524" style="position: absolute;" xml:space="preserve">
<g id="c" transform="translate(2.2672850191475904, 4.734441583989648) scale(0.5504986216744975, 0.10788742395745379)">
	<rect x="5.044" y="5.307" style="fill:none;" width="490.295" height="487.835"></rect>
</g>
<g id="s" transform="translate(2.2672850191475904, -436.2046080698648) scale(0.5504986216744975, 1)">
	<rect x="4.988" y="493.143" style="fill:none;" width="490.355" height="7.22"></rect>
	<g>
		<path style="" d="M464.581,496.457c-0.733,0.004-1.484,0.004-2.218,0.009l0.008-0.005    C463.407,496.445,464.098,496.445,464.581,496.457z M495.343,496.363v2.563c-2.788,0.284-8.424,0.293-9.961,0.163    c1.891-0.09,2.763-0.207,3.061-0.323c-16.806-0.018-33.61-0.03-50.329-0.043c-19.523-0.078-38.974-0.255-58.277-0.644    l-8.558,0.592c-10.099-0.173-22.424-0.009-30.883,0.336c0.173-0.038,0.211-0.095,0.03-0.142    c-25.945,0.475-52.137-1.195-73.995,0.198c-46.717-0.048-93.312,0.651-138.915,0.276c-1.282,0.47-4.665,0.405-8.031,0.682    c-4.82-0.682-15.786,0.009-18.825-0.717c-12.269,0.816-25.863,0.51-38.892,0.647c-1.17-0.025,1.964-0.177-0.535-0.457    c-6.366-0.428-1.476,0.635-7.608,0.419l1.079-0.333c-8.419-0.625-16.145,0.644-25.44,0.216c2.849-0.358-1.208-0.38-0.099-0.725    c28.897,0.211,58.494,0.737,86.739-0.578c-0.44,0.284-0.146,0.505,1.445,0.608c33.041-0.635,67.742-0.79,100.188-0.997    c-1.377-0.25-0.285-0.592,2.175-0.682c5.472,0.63,22.433-0.704,31.185,0.112c-0.721,0.043-1.934,0.168-1.355,0.271    c2.244,0.048,4.467-0.271,6.461-0.44c-0.669,0.057-0.885,0.198-1.532,0.255c26.605-0.237,52.024-0.656,77.861-0.876    c-46.733-0.963-94.675,0.608-142.694-0.095c-56.543,1.277-111.407,2.646-167.968,0.518c-3.047-0.155-6.232-0.264-9.529-0.324    c-2.309-0.017-4.726-0.034-7.155-0.052v-1.579l2.831,0.043l5.899,0.087l11.82,0.099c7.885,0.009,15.735,0.018,23.477,0.021    c15.488-0.095,30.516-0.405,44.373-0.992c0.712,0.858,10.021,0.018,12.14,0.604c13.857-0.526,32.177-0.354,41.253-0.95    c5.878,0.415,11.751,0.151,15.773,1.425c9.321-0.842,26.304-0.906,39.902-0.984l-1.174,0.164    c12.053-0.535,26.019,0.021,34.649,0.294c10.418-1.33,27.637,0.077,39.751-0.894c14.181,0.134,32.682,0.311,49.443,0.471    c-0.423,0.193-0.034,0.414,1.105,0.646c5.27-1.29,20.719,0.155,22.178-0.94c9.305,1.562,11.143-0.885,21.082,0.375    c-0.799-0.034-1.015,0.074-1.204,0.16c5.118-0.03,18.897,0.212,23.546,1.2c-4.049-0.863,7.535-0.372,10.133-0.829    c18.526-0.013,37.537,0,54.126-0.28c-2.485,1.174,4.868-0.846,6.793-0.164l1.265,0.328c3.172,0.091,8.704,0.509,12.696-0.186    c0.077-0.035,0.025-0.048-0.021-0.065c-0.009-0.004,0-0.004-0.005-0.008c5.844,0.354,6.936,1.208,15.097,1.285    c0.69,0.406,0.414,0.221,1.972,0.644c0.194,0,0.385,0,0.583,0.004L495.343,496.363z M464.581,496.457    c-0.479-0.013-1.174-0.013-2.21,0.004l-0.008,0.005C463.097,496.461,463.848,496.461,464.581,496.457z" fill="#000000" class="color color-1" data-color="#C23981"></path>
	</g>
</g>
<g id="sw" transform="translate(1, -436.2046080698648) scale(1, 1)">
	<rect x="0.007" y="493.143" style="fill:none;" width="5.041" height="7.22"></rect>
	<g>
		<path style="" d="M4.004,495.166c0.021-0.682,0.039-1.342,0.056-2.023H0.085c0.03,0.729,0.069,1.424,0.117,2.023    c0.117,1.446,0.289,2.378,0.544,2.072c0.759,0.833,1.428,4.328,2.02-0.458c0.427,0.005,0.82,0.005,1.239,0.009    c0.336,0.004,0.647,0.004,0.984,0.009v-1.58L4.004,495.166z" fill="#000000" class="color color-1" data-color="#C23981"></path>
	</g>
</g>
<g id="e" transform="translate(-221.35500798403183, 4.734441583989648) scale(1, 0.10788742395745379)">
	<rect x="495.265" y="5.234" style="fill:none;" width="4.73" height="487.909"></rect>
	<g>
		<path style="" d="M498.959,371.655c0.009-1.109,0-2.231,0.009-3.341c0.233-35.552,0.323-70.033-0.22-105.676    c-0.044-9.956-0.082-19.921-0.061-29.898c-0.173-2.633-0.294-5.316-0.385-8.053c-0.077-12.407,0.065-24.267,0.074-36.07    c0.155-9.817,0.289-19.86,0.107-29.872c0.048-0.177,0.1-0.146,0.138,0.025c-0.345-8.458-0.509-20.783-0.336-30.882l-0.397-5.779    c0-5.429,0.009-10.845,0.009-16.257c0.237-14.875,0.38-29.799,0.444-44.8c0.018-18.54,0.035-37.174,0.052-55.822h-2.624    c0.044,2.037,0.087,4.078,0.13,6.154c0.021,3.042,0.048,6.128,0.073,9.218c0.009,6.176,0.009,12.425,0.018,18.682    c0,12.088,0.064,24.202,0.5,35.958l-0.444-0.772c0.173,3.043,0.237,6.21,0.289,9.387c0.035,1.804,0.057,3.634,0.082,5.455    c0.065,11.432-0.271,23.339,0,34.736l-0.172-1.113c-0.082,16.075,0,31.65,0.146,47.108c-0.039,7.298-0.073,14.613-0.03,21.858    c-0.116,16.063,0.229,26.912,0.246,43.053l-0.362,0.405c1.376,27.158-1.222,57.096,0.271,85.437l-0.479-1.951    c0.751,4.394-0.271,17.142,1.023,15.463l-0.397,5.015c1.718,19.243-0.79,35.043,0.324,58.641l-0.307-1.549    c0.241,6.271,0.432,13.576,0.143,18.233c-0.043-0.726-0.134-0.389-0.216-1.887c-1.213,19.649,0.125,41.525,0.082,62.257    l-0.57-2.352c0.208,3.047,0.281,6.888,0.307,11.112c-0.004,2.961-0.013,6.15-0.021,9.365h2.003    c0.017-6.793,0.029-13.586,0.043-20.383c0.38,1.528-0.155,6.538,0.479,5.787c0.294-3.452-0.25-4.963-0.479-5.83    c0.047-14.328,0.082-28.655,0.107-42.971c0.057-9.127,0.1-18.104,0.164-26.973c0.462,22.2,0.125,44.922-0.034,67.233    c0.341,1.108,0.362-2.948,0.725-0.096c0.432-9.3-0.846-17.024-0.22-25.44l0.328,1.07c0.216-6.128-0.833-1.233-0.41-7.604    c0.276-2.494,0.427,0.639,0.453-0.535c-0.134-13.033,0.164-26.614-0.647-38.893c0.725-3.033,0.026-14,0.717-18.82    C499.365,376.32,499.43,372.936,498.959,371.655z" fill="#000000" class="color color-1" data-color="#C23981"></path>
	</g>
</g>
<g id="se" transform="translate(-221.35500798403183, -436.2046080698648) scale(1, 1)">
	<rect x="495.343" y="493.143" style="fill:none;" width="4.656" height="7.22"></rect>
	<g>
		<path style="" d="M498.407,496.759c0-0.121,0-0.246,0-0.362c0.004-1.083,0.004-2.171,0.008-3.254h-2.002    c0,1.087,0,2.157-0.005,3.254c-0.297-0.048-0.526-0.082-0.897-0.112l-0.168,0.078v2.563c0.427-0.044,0.794-0.091,1.062-0.147    h0.004c0.661,0,1.325,0,1.999,0c0-0.401,0-0.789,0-1.183C498.968,497.307,497.954,497.38,498.407,496.759z" fill="#000000" class="color color-1" data-color="#C23981"></path>
	</g>
</g>
<g id="w" transform="translate(1, 4.734441583989648) scale(1, 0.10788742395745379)">
	<rect x="0.003" y="5.307" style="fill:none;" width="5.045" height="487.835"></rect>
	<g>
		<path style="" d="M4.569,325.503c0.156-16.758,0.333-35.267,0.466-49.448c-0.967-12.113,0.436-29.333-0.894-39.751    c0.281-8.64,0.837-22.609,0.302-34.654l0.164,1.17c-0.082-13.599-0.147-30.58-0.988-39.897c1.273-4.022,1.014-9.896,1.424-15.773    c-0.591-9.076-0.419-27.4-0.954-41.253c0.591-2.124-0.25-11.428,0.609-12.14C4.111,79.894,3.805,64.863,3.714,49.378    c0.009-7.746,0.013-15.596,0.018-23.481l0.104-11.82l0.082-5.899L3.96,5.351H1.436c0.03,10.53,0.06,21.276,0.095,32.198    c-0.984,36.299-0.665,72.036,0.03,108.084c0.462,44.477-0.885,87.603-0.458,132.075c-0.462,33.942,0.565,69.265,0.854,104.122    c-0.401,13.063-0.889,26.477-0.751,39.941l0.345-0.954c-0.431,3.923-0.259,8.195-0.017,12.295    c-0.069,4.738-0.069,9.611-0.009,14.587c-0.034,0.121-0.039,0.276-0.069,0.389l-0.073-1.006c-0.298,1.934-0.095,4.112,0.211,6.231    c0.034,1.848,0.056,3.686,0.095,5.542c0.112,5.092,0.229,10.21,0.337,15.303c-0.462,3.889,0.583,13.512-0.885,13.857    c0-3.354-0.69,5.252-1.066-2.278c-0.091,1.144-0.112,4.569,0,7.4h3.975c0.276-11.143,0.552-22.126,0.815-32.647    c-0.172-1.877-0.414-3.832-0.665-5.821c-0.211-12.955-0.254-27.253-0.263-41.646c0.112-3.241,0.155-6.624-0.009-10.12    c0-0.189,0-0.38,0-0.569c-0.008-0.069-0.017-0.151-0.034-0.225c-0.026-0.462-0.013-0.902-0.048-1.377l0.225-0.457l-0.311-5.326    c0.276,0.121,0.708,0.337,0.617,3.181c0.043-9.723-0.017-19.571-0.043-29.38c0.082,0.172,0.16,0.418,0.129,1.104    c0.911-7.143-0.095-10.133-0.142-14.69c-0.004-0.298,0-0.596-0.004-0.885c0.026-1.566,0.16-3.314,0.522-5.498    c-1.01-1.342,0.134-14.621-0.695-20.788c-0.008-0.742-0.013-1.48-0.017-2.223C4.288,325.326,4.431,325.21,4.569,325.503z" fill="#000000" class="color color-1" data-color="#C23981"></path>
	</g>
</g>
<g id="ne" transform="translate(-221.35500798403183, 1) scale(1, 1)">
	<rect x="495.265" y="-0.001" style="fill:none;" width="4.73" height="5.235"></rect>
	<g>
		<path style="" d="M495.732,0.763c-0.155,0-0.312,0-0.467,0v2.689c0.16-0.009,0.307-0.018,0.467-0.022    c0.013,0.6,0.025,1.208,0.038,1.809h2.624c0-0.604,0-1.2,0-1.809c0-0.884,0-1.765,0-2.658    C497.509,0.767,496.624,0.763,495.732,0.763z" fill="#000000" class="color color-1" data-color="#C23981"></path>
	</g>
</g>
<g id="n" transform="translate(2.2672850191475904, 1) scale(0.5504986216744975, 1)">
	<rect x="5.044" y="-0.001" style="fill:none;" width="490.221" height="5.308"></rect>
	<g>
		<path style="" d="M429.366,0.591c-70.12-0.35-131.553-1.359-199.839,0.488c0.091-0.138-0.461-0.22,1.3-0.276    c-19.71,0.28-37.658-0.225-56.229,0.078l0.064-0.138C128.616,1.903,78.815,0.591,34.42,1.838    C25.141,1.825,15.591,1.816,5.044,1.803v2.589C16.531,4.677,27.843,4.967,38.679,5.23c5.248-0.479,11.186-1.463,16.473-2.045    c0.535,0.073,0.47,0.216-0.669,0.211c7.57-0.16,14.643,0.677,22.2,0.522c-0.065,0.143-0.065,0.143-1.286,0.276    c7.09-0.389,14.655,0.673,23.036,0.021l0.462,0.225l5.325-0.315c-0.125,0.281-0.336,0.708-3.185,0.622    c64.976,0.272,132.053-1.195,198.759-0.984l-2.451,0.276l12.938-0.479c-0.073,0.142-0.678,0.211-1.304,0.276    c16.478,0.471,33.58-0.319,49.634-0.198c-0.082,0.129-2.507,0.41-0.263,0.565c11.881-0.777,19.092,1.001,25.048-0.604    c0.552,0.082,0.923,0.44-0.281,0.561c33.075-0.522,67.03-0.492,100.347-0.242c3.845-0.155,7.764-0.315,11.799-0.479v-2.68    C473.312,0.703,451.316,0.647,429.366,0.591z" fill="#000000" class="color color-1" data-color="#C23981"></path>
	</g>
</g>
<g id="nw" transform="translate(1, 1) scale(1, 1)">
	<rect x="0.003" y="0.004" style="fill:none;" width="5.045" height="5.304"></rect>
	<g>
		<path style="" d="M4.012,1.799c-0.872,0-1.7,0-2.589-0.004c0,0.841,0.009,1.722,0.013,2.568c0,0.323,0,0.66,0,0.988    H3.96l0.052-0.988c0.345,0.017,0.682,0.021,1.032,0.03V1.803C4.694,1.799,4.362,1.799,4.012,1.799z" fill="#000000" class="color color-1" data-color="#C23981"></path>
	</g>
</g>
</svg>